[IMG]http://i1022.photobucket.com/albums/af345/bhoottt/Udaan.jpg[/IMG]

[IMG]http://i1022.photobucket.com/albums/af345/bhoottt/Udaan2010Pre-DVDripXvidVAMPIREROCKs_20100824-16572373.jpg[/IMG]
[IMG]http://i1022.photobucket.com/albums/af345/bhoottt/Udaan2010Pre-DVDripXvidVAMPIREROCKs_20100824-16562692.jpg[/IMG]
[IMG]http://i1022.photobucket.com/albums/af345/bhoottt/Udaan2010Pre-DVDripXvidVAMPIREROCKs_20100824-16531842.jpg[/IMG]
[IMG]http://i1022.photobucket.com/albums/af345/bhoottt/Udaan2010Pre-DVDripXvidVAMPIREROCKs_20100824-16524706.jpg[/IMG]
[IMG]http://i1022.photobucket.com/albums/af345/bhoottt/Udaan2010Pre-DVDripXvidVAMPIREROCKs_20100824-16514107.jpg[/IMG]


Video
ID                               : 0
Format                           : MPEG-4 Visual
Format profile                   : Advanced Simple@L5
Format settings, BVOP            : Yes
Format settings, QPel            : No
Format settings, GMC             : No warppoints
Format settings, Matrix          : Default (H.263)
Codec ID                         : XVID
Codec ID/Hint                    : XviD
Duration                         : 2h 7mn
Bit rate                         : 699 Kbps
Width                            : 640 pixels
Height                           : 272 pixels
Display aspect ratio             : 2.35:1
Frame rate                       : 23.976 fps
Resolution                       : 8 bits
Colorimetry                      : 4:2:0
Scan type                        : Progressive
Bits/(Pixel*Frame)               : 0.167
Stream size                      : 638 MiB (91%)
Writing library                  : XviD 1.2.1 (UTC 2008-12-04)

Audio
ID                               : 1
Format                           : MPEG Audio
Format version                   : Version 2
Format profile                   : Layer 3
Mode                             : Joint stereo
Format_Settings_ModeExtension    : MS Stereo
Codec ID                         : 55
Codec ID/Hint                    : MP3
Duration                         : 2h 7mn
Bit rate mode                    : Constant
Bit rate                         : 56.0 Kbps
Channel(s)                       : 2 channels
Sampling rate                    : 24.0 KHz
Stream size                      : 51.1 MiB (7%)
Alignment                        : Aligned on interleaves